<svg width="22" height="22" viewBox="0 0 22 22" fill="none" xmlns="http://www.w3.org/2000/svg">
<path d="M18.2654 4.29138C18.2492 4.19409 18.1698 4.1195 18.0715 4.11022C17.9942 4.0975 16.2943 3.98097 16.2943 3.98097L14.9984 2.68503C14.8815 2.55578 14.623 2.59359 14.5254 2.62041C14.5127 2.62041 14.2669 2.69775 13.8647 2.82837C13.4739 1.69744 12.7819 0.660688 11.563 0.660688H11.4588C11.1095 0.207969 10.6819 0 10.321 0C7.48298 0.0127188 6.13067 3.55197 5.70305 5.36044L3.71961 5.96888C3.11117 6.16275 3.08883 6.17684 3.00702 6.75709L1.33398 19.6539L13.8699 22L20.6634 20.5356C20.6634 20.5229 18.2778 4.41478 18.2654 4.29172V4.29138ZM13.1696 3.04562C12.8544 3.14978 12.4949 3.25359 12.1075 3.37047V3.13672C12.1189 2.55343 12.0315 1.97241 11.849 1.41831C12.4842 1.51594 12.9111 2.22853 13.17 3.04528L13.1696 3.04562ZM11.0838 1.56819C11.291 2.17937 11.3873 2.82287 11.3677 3.46809V3.58497L9.1763 4.25975C9.6053 2.65788 10.3966 1.86656 11.0841 1.56819H11.0838ZM10.2416 0.779969C10.3712 0.782727 10.4972 0.823223 10.6042 0.8965C9.68986 1.32206 8.72323 2.39731 8.30867 4.54953L6.57445 5.08097C7.06361 3.44781 8.20486 0.776875 10.2405 0.776875L10.2416 0.779969Z" fill="#95BF47"/>
<path d="M18.0724 4.1102C17.995 4.09748 16.2952 3.98095 16.2952 3.98095L14.9992 2.68501C14.9511 2.6362 14.8858 2.60835 14.8181 2.60767L13.8721 22L20.6656 20.5356L18.2662 4.30442C18.2584 4.2558 18.2355 4.21088 18.2007 4.17607C18.1659 4.14125 18.121 4.11832 18.0724 4.11054V4.1102Z" fill="#6B994D"/>
<path d="M11.5634 7.86844L10.7198 10.3579C10.21 10.1111 9.65281 9.97838 9.08631 9.96841C7.76356 9.96841 7.69894 10.7975 7.69894 11.0058C7.69894 12.1395 10.6676 12.5747 10.6676 15.2453C10.6676 17.3456 9.33209 18.6931 7.53944 18.6931C5.38756 18.6931 4.28516 17.3577 4.28516 17.3577L4.8575 15.4498C4.8575 15.4498 5.985 16.4227 6.94509 16.4227C7.05986 16.427 7.17433 16.4081 7.28156 16.3669C7.3888 16.3258 7.48657 16.2633 7.56896 16.1833C7.65136 16.1033 7.71666 16.0074 7.76092 15.9014C7.80518 15.7954 7.82748 15.6816 7.82647 15.5667C7.82647 14.0748 5.38928 14.0106 5.38928 11.573C5.38928 9.5236 6.86672 7.5271 9.83534 7.5271C11.002 7.54429 11.5603 7.86741 11.5603 7.86741L11.5634 7.86844Z" fill="white"/>
</svg>
