<svg xmlns="http://www.w3.org/2000/svg" xmlns:xlink="http://www.w3.org/1999/xlink" width="1915" zoomAndPan="magnify" viewBox="0 0 1436.25 371.249998" height="495" preserveAspectRatio="xMidYMid meet" version="1.0"><defs><clipPath id="31fe535634"><path d="M 7 4 L 1428 4 L 1428 367 L 7 367 Z M 7 4 " clip-rule="nonzero"/></clipPath><clipPath id="3265c4b67c"><path d="M 388.828125 136.1875 C 386.15625 135.34375 382.476562 134.644531 377.8125 134.089844 C 373.148438 133.535156 368.808594 133.269531 364.800781 133.269531 C 356.683594 133.269531 349.324219 135.058594 342.789062 138.632812 C 336.234375 142.210938 331.117188 147.1875 327.417969 153.558594 C 323.71875 159.933594 321.867188 167.253906 321.867188 175.496094 L 321.867188 290.519531 L 265.636719 290.519531 L 265.636719 87.03125 L 320.039062 87.03125 L 320.039062 122.703125 L 322.21875 122.703125 C 325.976562 110.078125 332.226562 100.519531 340.960938 94.042969 C 349.695312 87.546875 359.703125 84.296875 370.988281 84.296875 C 373.90625 84.296875 376.96875 84.441406 380.175781 84.75 C 383.382812 85.058594 386.257812 85.574219 388.808594 86.292969 L 388.808594 136.167969 Z M 1361.398438 290.519531 L 1427.453125 290.519531 L 1348.367188 175.351562 L 1423.628906 87.03125 L 1358.847656 87.03125 L 1293.882812 164.394531 L 1290.777344 164.394531 L 1290.777344 19.335938 L 1234.546875 19.335938 L 1234.546875 290.519531 L 1290.777344 290.519531 L 1290.777344 225.886719 L 1306.027344 208.472656 L 1361.375 290.519531 Z M 220.523438 82.222656 C 231.066406 102.429688 236.347656 126.609375 236.347656 154.753906 C 236.347656 182.898438 231.046875 207.300781 220.421875 227.550781 C 209.792969 247.820312 194.605469 263.382812 174.835938 274.238281 C 155.0625 285.09375 131.40625 290.519531 103.867188 290.519531 L 7.78125 290.519531 L 7.78125 19.335938 L 104.769531 19.335938 C 132.066406 19.335938 155.535156 24.761719 175.183594 35.617188 C 194.832031 46.472656 209.9375 62.011719 220.480469 82.203125 Z M 179.398438 154.753906 C 179.398438 134.730469 176.457031 118.34375 170.582031 105.617188 C 164.703125 92.871094 155.96875 83.496094 144.375 77.492188 C 132.785156 71.492188 118.5 68.488281 101.523438 68.488281 L 64.941406 68.488281 L 64.941406 241.40625 L 101.339844 241.40625 C 118.4375 241.40625 132.785156 238.40625 144.375 232.402344 C 155.945312 226.398438 164.679688 216.984375 170.582031 204.195312 C 176.457031 191.410156 179.398438 174.921875 179.398438 154.773438 Z M 575.796875 134.460938 C 583.851562 150.167969 587.902344 168.589844 587.902344 189.703125 C 587.902344 210.816406 583.871094 228.867188 575.796875 244.574219 C 567.738281 260.300781 556.207031 272.550781 541.226562 281.332031 C 526.242188 290.128906 508.445312 294.53125 487.828125 294.53125 C 467.214844 294.53125 449.582031 290.128906 434.597656 281.332031 C 419.617188 272.53125 408.085938 260.277344 400.027344 244.574219 C 391.972656 228.867188 387.921875 210.570312 387.921875 189.703125 C 387.921875 168.835938 391.953125 150.167969 400.027344 134.460938 C 408.085938 118.753906 419.617188 106.5 434.597656 97.703125 C 449.582031 88.902344 467.320312 84.503906 487.828125 84.503906 C 508.339844 84.503906 526.242188 88.902344 541.226562 97.703125 C 556.207031 106.5 567.738281 118.753906 575.796875 134.460938 Z M 530.765625 189.332031 C 530.765625 177.449219 529.160156 166.945312 525.933594 157.835938 C 522.726562 148.730469 517.960938 141.574219 511.648438 136.351562 C 505.339844 131.132812 497.511719 128.519531 488.179688 128.519531 C 478.847656 128.519531 470.8125 131.132812 464.441406 136.351562 C 458.070312 141.574219 453.28125 148.730469 450.074219 157.835938 C 446.847656 166.945312 445.246094 177.429688 445.246094 189.332031 C 445.246094 201.234375 446.847656 211.597656 450.074219 220.828125 C 453.28125 230.058594 458.089844 237.292969 464.441406 242.578125 C 470.8125 247.863281 478.726562 250.492188 488.179688 250.492188 C 497.632812 250.492188 505.339844 247.863281 511.648438 242.578125 C 517.960938 237.292969 522.707031 230.039062 525.933594 220.828125 C 529.140625 211.597656 530.765625 201.113281 530.765625 189.332031 Z M 799.511719 130.90625 C 807.03125 146.425781 810.792969 165.855469 810.792969 189.148438 C 810.792969 212.441406 807.15625 230.796875 799.878906 246.382812 C 792.605469 261.984375 782.738281 273.785156 770.304688 281.78125 C 757.871094 289.800781 743.894531 293.789062 728.355469 293.789062 C 717.445312 293.789062 708.152344 291.960938 700.507812 288.320312 C 692.863281 284.683594 686.65625 280.097656 681.867188 274.585938 C 677.078125 269.058594 673.335938 263.507812 670.664062 257.933594 L 669.023438 257.933594 L 669.023438 366.585938 L 612.789062 366.585938 L 612.789062 87.03125 L 668.097656 87.03125 L 668.097656 121.425781 L 670.644531 121.425781 C 673.195312 115.855469 676.832031 110.203125 681.558594 104.507812 C 686.285156 98.8125 692.472656 94.042969 700.117188 90.21875 C 707.761719 86.394531 717.21875 84.484375 728.5 84.484375 C 743.421875 84.484375 757.089844 88.347656 769.542969 96.039062 C 781.980469 103.746094 791.945312 115.363281 799.46875 130.90625 Z M 753.101562 188.960938 C 753.101562 177.183594 751.5 166.839844 748.273438 157.917969 C 745.066406 148.996094 740.296875 141.984375 733.988281 136.90625 C 727.679688 131.808594 719.847656 129.261719 710.515625 129.261719 C 701.1875 129.261719 693.683594 131.707031 687.3125 136.640625 C 680.941406 141.554688 676.089844 148.460938 672.761719 157.382812 C 669.410156 166.304688 667.746094 176.832031 667.746094 188.960938 C 667.746094 201.089844 669.453125 211.472656 672.84375 220.457031 C 676.234375 229.441406 681.128906 236.453125 687.5 241.488281 C 693.871094 246.527344 701.535156 249.035156 710.515625 249.035156 C 719.5 249.035156 727.492188 246.484375 733.804688 241.386719 C 740.113281 236.289062 744.902344 229.214844 748.167969 220.167969 C 751.4375 211.144531 753.082031 200.722656 753.082031 188.960938 Z M 924.882812 290.519531 L 981.113281 290.519531 L 981.113281 87.03125 L 924.882812 87.03125 Z M 835.539062 290.519531 L 891.769531 290.519531 L 891.769531 19.335938 L 835.539062 19.335938 Z M 952.894531 4.039062 C 944.527344 4.039062 937.375 6.792969 931.417969 12.324219 C 925.476562 17.855469 922.496094 24.554688 922.496094 32.429688 C 922.496094 40.304688 925.476562 47.046875 931.417969 52.640625 C 937.355469 58.210938 944.507812 61.007812 952.894531 61.007812 C 961.28125 61.007812 968.597656 58.210938 974.554688 52.640625 C 980.515625 47.066406 983.476562 40.324219 983.476562 32.429688 C 983.476562 24.535156 980.496094 17.832031 974.554688 12.324219 C 968.617188 6.8125 961.402344 4.039062 952.894531 4.039062 Z M 1168.242188 93.777344 C 1157.742188 87.589844 1145.472656 84.484375 1131.394531 84.484375 C 1116.226562 84.484375 1103.605469 87.9375 1093.554688 94.867188 C 1083.484375 101.773438 1076.148438 111.25 1071.542969 123.257812 L 1069.550781 123.257812 L 1069.550781 87.03125 L 1014.242188 87.03125 L 1014.242188 290.519531 L 1070.476562 290.519531 L 1070.476562 172.945312 C 1070.476562 164.210938 1072.121094 156.746094 1075.386719 150.558594 C 1078.65625 144.371094 1083.21875 139.601562 1089.035156 136.269531 C 1094.851562 132.941406 1101.53125 131.253906 1109.054688 131.253906 C 1120.335938 131.253906 1129.195312 134.8125 1135.628906 141.902344 C 1142.058594 149.015625 1145.265625 158.742188 1145.265625 171.117188 L 1145.265625 290.519531 L 1201.5 290.519531 L 1201.5 161.105469 C 1201.5 145.214844 1198.578125 131.5625 1192.761719 120.152344 C 1186.945312 108.742188 1178.789062 99.945312 1168.285156 93.753906 Z M 1168.242188 93.777344 " clip-rule="nonzero"/></clipPath><linearGradient x1="425" gradientTransform="matrix(2.055259, 0, 0, 2.055844, -155.85672, -123.053706)" y1="238.169982" x2="425" gradientUnits="userSpaceOnUse" y2="61.820006" id="6b695b7d3e"><stop stop-opacity="1" stop-color="rgb(0.390625%, 0.390625%, 0.390625%)" offset="0"/><stop stop-opacity="1" stop-color="rgb(0.576782%, 0.576782%, 0.576782%)" offset="0.03125"/><stop stop-opacity="1" stop-color="rgb(0.949097%, 0.949097%, 0.949097%)" offset="0.0625"/><stop stop-opacity="1" stop-color="rgb(1.322937%, 1.322937%, 1.322937%)" offset="0.09375"/><stop stop-opacity="1" stop-color="rgb(1.696777%, 1.696777%, 1.696777%)" offset="0.125"/><stop stop-opacity="1" stop-color="rgb(2.069092%, 2.069092%, 2.069092%)" offset="0.15625"/><stop stop-opacity="1" stop-color="rgb(2.42157%, 2.42157%, 2.42157%)" offset="0.171875"/><stop stop-opacity="1" stop-color="rgb(2.702332%, 2.702332%, 2.702332%)" offset="0.179688"/><stop stop-opacity="1" stop-color="rgb(2.935791%, 2.935791%, 2.935791%)" offset="0.1875"/><stop stop-opacity="1" stop-color="rgb(3.16925%, 3.16925%, 3.16925%)" offset="0.195312"/><stop stop-opacity="1" stop-color="rgb(3.404236%, 3.404236%, 3.404236%)" offset="0.203125"/><stop stop-opacity="1" stop-color="rgb(3.637695%, 3.637695%, 3.637695%)" offset="0.210938"/><stop stop-opacity="1" stop-color="rgb(3.871155%, 3.871155%, 3.871155%)" offset="0.21875"/><stop stop-opacity="1" stop-color="rgb(4.104614%, 4.104614%, 4.104614%)" offset="0.226562"/><stop stop-opacity="1" stop-color="rgb(4.3396%, 4.3396%, 4.3396%)" offset="0.234375"/><stop stop-opacity="1" stop-color="rgb(4.573059%, 4.573059%, 4.573059%)" offset="0.242188"/><stop stop-opacity="1" stop-color="rgb(4.806519%, 4.806519%, 4.806519%)" offset="0.25"/><stop stop-opacity="1" stop-color="rgb(5.039978%, 5.039978%, 5.039978%)" offset="0.257812"/><stop stop-opacity="1" stop-color="rgb(5.273438%, 5.273438%, 5.273438%)" offset="0.265625"/><stop stop-opacity="1" stop-color="rgb(5.508423%, 5.508423%, 5.508423%)" offset="0.273438"/><stop stop-opacity="1" stop-color="rgb(5.741882%, 5.741882%, 5.741882%)" offset="0.28125"/><stop stop-opacity="1" stop-color="rgb(5.975342%, 5.975342%, 5.975342%)" offset="0.289062"/><stop stop-opacity="1" stop-color="rgb(6.208801%, 6.208801%, 6.208801%)" offset="0.296875"/><stop stop-opacity="1" stop-color="rgb(6.443787%, 6.443787%, 6.443787%)" offset="0.304688"/><stop stop-opacity="1" stop-color="rgb(6.677246%, 6.677246%, 6.677246%)" offset="0.3125"/><stop stop-opacity="1" stop-color="rgb(6.910706%, 6.910706%, 6.910706%)" offset="0.320312"/><stop stop-opacity="1" stop-color="rgb(7.144165%, 7.144165%, 7.144165%)" offset="0.328125"/><stop stop-opacity="1" stop-color="rgb(7.377625%, 7.377625%, 7.377625%)" offset="0.335938"/><stop stop-opacity="1" stop-color="rgb(7.61261%, 7.61261%, 7.61261%)" offset="0.34375"/><stop stop-opacity="1" stop-color="rgb(7.846069%, 7.846069%, 7.846069%)" offset="0.351562"/><stop stop-opacity="1" stop-color="rgb(8.079529%, 8.079529%, 8.079529%)" offset="0.359375"/><stop stop-opacity="1" stop-color="rgb(8.369446%, 8.369446%, 8.363342%)" offset="0.367188"/><stop stop-opacity="1" stop-color="rgb(8.724976%, 8.724976%, 8.706665%)" offset="0.375"/><stop stop-opacity="1" stop-color="rgb(9.094238%, 9.094238%, 9.060669%)" offset="0.382812"/><stop stop-opacity="1" stop-color="rgb(9.461975%, 9.461975%, 9.414673%)" offset="0.390625"/><stop stop-opacity="1" stop-color="rgb(9.831238%, 9.831238%, 9.767151%)" offset="0.398438"/><stop stop-opacity="1" stop-color="rgb(10.198975%, 10.198975%, 10.121155%)" offset="0.40625"/><stop stop-opacity="1" stop-color="rgb(10.568237%, 10.568237%, 10.475159%)" offset="0.414062"/><stop stop-opacity="1" stop-color="rgb(10.935974%, 10.935974%, 10.829163%)" offset="0.421875"/><stop stop-opacity="1" stop-color="rgb(11.305237%, 11.305237%, 11.183167%)" offset="0.429688"/><stop stop-opacity="1" stop-color="rgb(11.672974%, 11.672974%, 11.53717%)" offset="0.4375"/><stop stop-opacity="1" stop-color="rgb(12.042236%, 12.042236%, 11.891174%)" offset="0.445312"/><stop stop-opacity="1" stop-color="rgb(12.409973%, 12.409973%, 12.245178%)" offset="0.453125"/><stop stop-opacity="1" stop-color="rgb(12.779236%, 12.779236%, 12.599182%)" offset="0.460938"/><stop stop-opacity="1" stop-color="rgb(13.146973%, 13.146973%, 12.953186%)" offset="0.46875"/><stop stop-opacity="1" stop-color="rgb(13.516235%, 13.516235%, 13.305664%)" offset="0.476562"/><stop stop-opacity="1" stop-color="rgb(13.883972%, 13.883972%, 13.659668%)" offset="0.484375"/><stop stop-opacity="1" stop-color="rgb(14.253235%, 14.253235%, 14.013672%)" offset="0.492188"/><stop stop-opacity="1" stop-color="rgb(14.620972%, 14.620972%, 14.367676%)" offset="0.5"/><stop stop-opacity="1" stop-color="rgb(14.990234%, 14.990234%, 14.72168%)" offset="0.507812"/><stop stop-opacity="1" stop-color="rgb(15.357971%, 15.357971%, 15.075684%)" offset="0.515625"/><stop stop-opacity="1" stop-color="rgb(15.727234%, 15.727234%, 15.429688%)" offset="0.523438"/><stop stop-opacity="1" stop-color="rgb(16.094971%, 16.094971%, 15.783691%)" offset="0.53125"/><stop stop-opacity="1" stop-color="rgb(16.464233%, 16.464233%, 16.137695%)" offset="0.539063"/><stop stop-opacity="1" stop-color="rgb(16.833496%, 16.833496%, 16.491699%)" offset="0.546875"/><stop stop-opacity="1" stop-color="rgb(17.201233%, 17.201233%, 16.844177%)" offset="0.554688"/><stop stop-opacity="1" stop-color="rgb(17.570496%, 17.570496%, 17.198181%)" offset="0.5625"/><stop stop-opacity="1" stop-color="rgb(17.945862%, 17.945862%, 17.56134%)" offset="0.570313"/><stop stop-opacity="1" stop-color="rgb(18.356323%, 18.356323%, 17.965698%)" offset="0.574219"/><stop stop-opacity="1" stop-color="rgb(18.574524%, 18.574524%, 18.183899%)" offset="0.578125"/><stop stop-opacity="1" stop-color="rgb(18.791199%, 18.791199%, 18.4021%)" offset="0.582031"/><stop stop-opacity="1" stop-color="rgb(19.009399%, 19.009399%, 18.6203%)" offset="0.585938"/><stop stop-opacity="1" stop-color="rgb(19.2276%, 19.2276%, 18.836975%)" offset="0.589844"/><stop stop-opacity="1" stop-color="rgb(19.445801%, 19.445801%, 19.055176%)" offset="0.59375"/><stop stop-opacity="1" stop-color="rgb(19.664001%, 19.664001%, 19.273376%)" offset="0.597656"/><stop stop-opacity="1" stop-color="rgb(19.882202%, 19.882202%, 19.491577%)" offset="0.601563"/><stop stop-opacity="1" stop-color="rgb(20.098877%, 20.098877%, 19.709778%)" offset="0.605469"/><stop stop-opacity="1" stop-color="rgb(20.317078%, 20.317078%, 19.927979%)" offset="0.609375"/><stop stop-opacity="1" stop-color="rgb(20.535278%, 20.535278%, 20.144653%)" offset="0.613281"/><stop stop-opacity="1" stop-color="rgb(20.753479%, 20.753479%, 20.362854%)" offset="0.617188"/><stop stop-opacity="1" stop-color="rgb(20.970154%, 20.970154%, 20.581055%)" offset="0.621094"/><stop stop-opacity="1" stop-color="rgb(21.188354%, 21.188354%, 20.799255%)" offset="0.625"/><stop stop-opacity="1" stop-color="rgb(21.406555%, 21.406555%, 21.017456%)" offset="0.628906"/><stop stop-opacity="1" stop-color="rgb(21.624756%, 21.624756%, 21.235657%)" offset="0.632813"/><stop stop-opacity="1" stop-color="rgb(21.842957%, 21.842957%, 21.452332%)" offset="0.636719"/><stop stop-opacity="1" stop-color="rgb(22.061157%, 22.061157%, 21.670532%)" offset="0.640625"/><stop stop-opacity="1" stop-color="rgb(22.277832%, 22.277832%, 21.888733%)" offset="0.644531"/><stop stop-opacity="1" stop-color="rgb(22.496033%, 22.496033%, 22.106934%)" offset="0.648438"/><stop stop-opacity="1" stop-color="rgb(22.714233%, 22.714233%, 22.323608%)" offset="0.652344"/><stop stop-opacity="1" stop-color="rgb(22.932434%, 22.932434%, 22.541809%)" offset="0.65625"/><stop stop-opacity="1" stop-color="rgb(23.150635%, 23.150635%, 22.76001%)" offset="0.660156"/><stop stop-opacity="1" stop-color="rgb(23.368835%, 23.368835%, 22.97821%)" offset="0.664063"/><stop stop-opacity="1" stop-color="rgb(23.599243%, 23.594666%, 23.213196%)" offset="0.667969"/><stop stop-opacity="1" stop-color="rgb(23.829651%, 23.820496%, 23.448181%)" offset="0.671875"/><stop stop-opacity="1" stop-color="rgb(24.067688%, 24.050903%, 23.692322%)" offset="0.675781"/><stop stop-opacity="1" stop-color="rgb(24.305725%, 24.282837%, 23.937988%)" offset="0.679688"/><stop stop-opacity="1" stop-color="rgb(24.543762%, 24.513245%, 24.183655%)" offset="0.683594"/><stop stop-opacity="1" stop-color="rgb(24.781799%, 24.745178%, 24.429321%)" offset="0.6875"/><stop stop-opacity="1" stop-color="rgb(25.019836%, 24.975586%, 24.673462%)" offset="0.691406"/><stop stop-opacity="1" stop-color="rgb(25.257874%, 25.20752%, 24.919128%)" offset="0.695313"/><stop stop-opacity="1" stop-color="rgb(25.495911%, 25.437927%, 25.163269%)" offset="0.699219"/><stop stop-opacity="1" stop-color="rgb(25.733948%, 25.669861%, 25.408936%)" offset="0.703125"/><stop stop-opacity="1" stop-color="rgb(25.971985%, 25.900269%, 25.653076%)" offset="0.707031"/><stop stop-opacity="1" stop-color="rgb(26.210022%, 26.132202%, 25.898743%)" offset="0.710938"/><stop stop-opacity="1" stop-color="rgb(26.448059%, 26.36261%, 26.142883%)" offset="0.714844"/><stop stop-opacity="1" stop-color="rgb(26.686096%, 26.594543%, 26.38855%)" offset="0.71875"/><stop stop-opacity="1" stop-color="rgb(26.924133%, 26.824951%, 26.634216%)" offset="0.722656"/><stop stop-opacity="1" stop-color="rgb(27.163696%, 27.056885%, 26.879883%)" offset="0.726563"/><stop stop-opacity="1" stop-color="rgb(27.401733%, 27.287292%, 27.124023%)" offset="0.730469"/><stop stop-opacity="1" stop-color="rgb(27.639771%, 27.519226%, 27.36969%)" offset="0.734375"/><stop stop-opacity="1" stop-color="rgb(27.877808%, 27.749634%, 27.613831%)" offset="0.738281"/><stop stop-opacity="1" stop-color="rgb(28.115845%, 27.981567%, 27.859497%)" offset="0.742188"/><stop stop-opacity="1" stop-color="rgb(28.353882%, 28.211975%, 28.103638%)" offset="0.746094"/><stop stop-opacity="1" stop-color="rgb(28.591919%, 28.443909%, 28.349304%)" offset="0.75"/><stop stop-opacity="1" stop-color="rgb(28.829956%, 28.674316%, 28.593445%)" offset="0.753906"/><stop stop-opacity="1" stop-color="rgb(29.067993%, 28.90625%, 28.839111%)" offset="0.757813"/><stop stop-opacity="1" stop-color="rgb(29.30603%, 29.136658%, 29.084778%)" offset="0.761719"/><stop stop-opacity="1" stop-color="rgb(29.544067%, 29.368591%, 29.330444%)" offset="0.765625"/><stop stop-opacity="1" stop-color="rgb(29.782104%, 29.598999%, 29.574585%)" offset="0.769531"/><stop stop-opacity="1" stop-color="rgb(30.020142%, 29.830933%, 29.820251%)" offset="0.773438"/><stop stop-opacity="1" stop-color="rgb(30.258179%, 30.06134%, 30.064392%)" offset="0.777344"/><stop stop-opacity="1" stop-color="rgb(30.496216%, 30.293274%, 30.310059%)" offset="0.78125"/><stop stop-opacity="1" stop-color="rgb(30.734253%, 30.523682%, 30.554199%)" offset="0.785156"/><stop stop-opacity="1" stop-color="rgb(30.97229%, 30.754089%, 30.799866%)" offset="0.789063"/><stop stop-opacity="1" stop-color="rgb(31.210327%, 30.984497%, 31.045532%)" offset="0.792969"/><stop stop-opacity="1" stop-color="rgb(31.448364%, 31.216431%, 31.291199%)" offset="0.796875"/><stop stop-opacity="1" stop-color="rgb(31.686401%, 31.446838%, 31.535339%)" offset="0.800781"/><stop stop-opacity="1" stop-color="rgb(31.924438%, 31.678772%, 31.781006%)" offset="0.804688"/><stop stop-opacity="1" stop-color="rgb(32.162476%, 31.90918%, 32.025146%)" offset="0.808594"/><stop stop-opacity="1" stop-color="rgb(32.400513%, 32.141113%, 32.270813%)" offset="0.8125"/><stop stop-opacity="1" stop-color="rgb(32.63855%, 32.371521%, 32.514954%)" offset="0.816406"/><stop stop-opacity="1" stop-color="rgb(32.878113%, 32.603455%, 32.76062%)" offset="0.820312"/><stop stop-opacity="1" stop-color="rgb(33.11615%, 32.833862%, 33.004761%)" offset="0.824219"/><stop stop-opacity="1" stop-color="rgb(33.354187%, 33.065796%, 33.250427%)" offset="0.828125"/><stop stop-opacity="1" stop-color="rgb(33.592224%, 33.296204%, 33.496094%)" offset="0.832031"/><stop stop-opacity="1" stop-color="rgb(33.830261%, 33.528137%, 33.74176%)" offset="0.835938"/><stop stop-opacity="1" stop-color="rgb(34.068298%, 33.758545%, 33.985901%)" offset="0.839844"/><stop stop-opacity="1" stop-color="rgb(34.306335%, 33.990479%, 34.231567%)" offset="0.84375"/><stop stop-opacity="1" stop-color="rgb(34.544373%, 34.220886%, 34.475708%)" offset="0.847656"/><stop stop-opacity="1" stop-color="rgb(34.78241%, 34.45282%, 34.721375%)" offset="0.851562"/><stop stop-opacity="1" stop-color="rgb(35.020447%, 34.683228%, 34.965515%)" offset="0.855469"/><stop stop-opacity="1" stop-color="rgb(35.258484%, 34.915161%, 35.211182%)" offset="0.859375"/><stop stop-opacity="1" stop-color="rgb(35.496521%, 35.145569%, 35.455322%)" offset="0.863281"/><stop stop-opacity="1" stop-color="rgb(35.734558%, 35.377502%, 35.700989%)" offset="0.867188"/><stop stop-opacity="1" stop-color="rgb(35.972595%, 35.60791%, 35.946655%)" offset="0.871094"/><stop stop-opacity="1" stop-color="rgb(36.210632%, 35.839844%, 36.192322%)" offset="0.875"/><stop stop-opacity="1" stop-color="rgb(36.448669%, 36.070251%, 36.436462%)" offset="0.878906"/><stop stop-opacity="1" stop-color="rgb(36.686707%, 36.302185%, 36.682129%)" offset="0.882812"/><stop stop-opacity="1" stop-color="rgb(36.950684%, 36.564636%, 36.953735%)" offset="0.886719"/><stop stop-opacity="1" stop-color="rgb(37.216187%, 36.827087%, 37.226868%)" offset="0.890625"/><stop stop-opacity="1" stop-color="rgb(37.496948%, 37.106323%, 37.513733%)" offset="0.894531"/><stop stop-opacity="1" stop-color="rgb(37.77771%, 37.387085%, 37.802124%)" offset="0.898438"/><stop stop-opacity="1" stop-color="rgb(38.056946%, 37.666321%, 38.088989%)" offset="0.902344"/><stop stop-opacity="1" stop-color="rgb(38.337708%, 37.947083%, 38.37738%)" offset="0.90625"/><stop stop-opacity="1" stop-color="rgb(38.616943%, 38.226318%, 38.664246%)" offset="0.910156"/><stop stop-opacity="1" stop-color="rgb(38.897705%, 38.50708%, 38.952637%)" offset="0.914062"/><stop stop-opacity="1" stop-color="rgb(39.176941%, 38.787842%, 39.239502%)" offset="0.917969"/><stop stop-opacity="1" stop-color="rgb(39.457703%, 39.068604%, 39.527893%)" offset="0.921875"/><stop stop-opacity="1" stop-color="rgb(39.736938%, 39.347839%, 39.814758%)" offset="0.925781"/><stop stop-opacity="1" stop-color="rgb(40.0177%, 39.628601%, 40.103149%)" offset="0.929688"/><stop stop-opacity="1" stop-color="rgb(40.298462%, 39.907837%, 40.390015%)" offset="0.933594"/><stop stop-opacity="1" stop-color="rgb(40.579224%, 40.188599%, 40.678406%)" offset="0.9375"/><stop stop-opacity="1" stop-color="rgb(40.858459%, 40.467834%, 40.965271%)" offset="0.941406"/><stop stop-opacity="1" stop-color="rgb(41.139221%, 40.748596%, 41.253662%)" offset="0.945312"/><stop stop-opacity="1" stop-color="rgb(41.418457%, 41.027832%, 41.540527%)" offset="0.949219"/><stop stop-opacity="1" stop-color="rgb(41.699219%, 41.308594%, 41.828918%)" offset="0.953125"/><stop stop-opacity="1" stop-color="rgb(41.978455%, 41.589355%, 42.115784%)" offset="0.957031"/><stop stop-opacity="1" stop-color="rgb(42.259216%, 41.870117%, 42.404175%)" offset="0.960938"/><stop stop-opacity="1" stop-color="rgb(42.538452%, 42.149353%, 42.69104%)" offset="0.964844"/><stop stop-opacity="1" stop-color="rgb(42.819214%, 42.430115%, 42.979431%)" offset="0.96875"/><stop stop-opacity="1" stop-color="rgb(43.099976%, 42.709351%, 43.266296%)" offset="0.972656"/><stop stop-opacity="1" stop-color="rgb(43.380737%, 42.990112%, 43.554688%)" offset="0.976562"/><stop stop-opacity="1" stop-color="rgb(43.659973%, 43.269348%, 43.841553%)" offset="0.980469"/><stop stop-opacity="1" stop-color="rgb(43.940735%, 43.55011%, 44.129944%)" offset="0.984375"/><stop stop-opacity="1" stop-color="rgb(44.219971%, 43.829346%, 44.418335%)" offset="0.988281"/><stop stop-opacity="1" stop-color="rgb(44.500732%, 44.110107%, 44.706726%)" offset="0.992188"/><stop stop-opacity="1" stop-color="rgb(44.779968%, 44.390869%, 44.993591%)" offset="0.996094"/><stop stop-opacity="1" stop-color="rgb(45.06073%, 44.671631%, 45.281982%)" offset="1"/></linearGradient></defs><g clip-path="url(#31fe535634)"><g clip-path="url(#3265c4b67c)"><path fill="url(#6b695b7d3e)" d="M 7.78125 4.039062 L 7.78125 366.585938 L 1427.453125 366.585938 L 1427.453125 4.039062 Z M 7.78125 4.039062 " fill-rule="nonzero"/></g></g></svg>