<svg width="2500" height="1002" viewBox="0 0 2500 1002" fill="none" xmlns="http://www.w3.org/2000/svg">
<g clip-path="url(#clip0_46_29)">
<path d="M323.274 218.699C146.94 218.699 -5.14984e-05 293.499 -5.14984e-05 519.2C-5.14984e-05 698.002 98.8075 810.594 327.819 810.594C597.382 810.594 614.66 633.026 614.66 633.026H484.048C484.048 633.026 456.046 728.639 319.855 728.639C208.931 728.639 129.153 653.706 129.153 548.686H628.327V482.775C628.327 378.873 562.367 218.699 323.274 218.699ZM318.712 302.93C424.3 302.93 496.281 367.615 496.281 464.563H132.038C132.038 361.636 226.001 302.93 318.712 302.93Z" fill="black"/>
<path d="M628.235 0.145248V697.252C628.235 736.82 625.409 792.382 625.409 792.382H749.983C749.983 792.382 754.461 752.48 754.461 716.006C754.461 716.006 816.011 812.303 983.372 812.303C1159.61 812.303 1279.32 689.938 1279.32 514.647C1279.32 351.563 1169.36 220.4 983.656 220.4C809.756 220.4 755.72 314.305 755.72 314.305V0.145248H628.235ZM951.501 306.625C1071.18 306.625 1147.29 395.45 1147.29 514.647C1147.29 642.465 1059.39 726.079 952.36 726.079C824.625 726.079 755.72 626.338 755.72 515.781C755.72 412.762 817.545 306.625 951.501 306.625Z" fill="black"/>
<path d="M1588.93 218.699C1323.66 218.699 1306.65 363.946 1306.65 387.162H1438.68C1438.68 387.162 1445.61 302.363 1579.83 302.363C1667.04 302.363 1734.63 342.29 1734.63 419.033V446.351H1579.83C1374.32 446.351 1265.67 506.474 1265.67 628.481C1265.67 748.544 1366.05 813.871 1501.72 813.871C1686.61 813.871 1746.16 711.711 1746.16 711.711C1746.16 752.347 1749.29 792.39 1749.29 792.39H1866.67C1866.67 792.39 1862.12 742.757 1862.12 711.003V436.536C1862.12 256.566 1716.96 218.699 1588.93 218.699ZM1734.63 528.306V564.73C1734.63 612.237 1705.31 730.349 1532.73 730.349C1438.23 730.349 1397.71 683.184 1397.71 628.472C1397.71 528.948 1534.16 528.306 1734.63 528.306Z" fill="black"/>
<path d="M1791.02 241.481H1939.56L2152.74 668.583L2365.44 241.481H2500L2112.58 1001.85H1971.43L2083.22 789.888L1791.02 241.481Z" fill="black"/>
</g>
<defs>
<clipPath id="clip0_46_29">
<rect width="2500" height="1002" fill="white"/>
</clipPath>
</defs>
</svg>
