<svg width="1500" height="417" viewBox="0 0 1500 417" fill="none" xmlns="http://www.w3.org/2000/svg">
<g clip-path="url(#clip0_46_49)">
<path d="M169.84 13.1866C172.846 13.1866 174.349 14.6491 177.355 16.1116C159.319 23.4242 141.283 42.4368 132.265 83.3872L99.1984 92.1623C109.719 62.912 130.762 13.1866 169.84 13.1866ZM186.373 27.8117C189.379 36.5868 192.385 46.8244 192.385 62.912C192.385 64.3745 192.385 64.3745 192.385 65.837L148.798 77.5371C157.816 46.8244 172.846 33.6618 186.373 27.8117ZM225.451 54.1369L205.912 59.987C205.912 58.5245 205.912 57.062 205.912 55.5994C205.912 42.4368 204.409 32.1992 201.403 23.4242C211.924 26.3492 220.942 39.5118 225.451 54.1369ZM323.146 77.5371C323.146 76.0746 321.643 74.6121 320.14 74.6121C317.134 74.6121 285.571 71.6871 285.571 71.6871C285.571 71.6871 263.026 49.7494 260.02 48.2869C257.014 45.3619 252.505 46.8244 251.002 46.8244C251.002 46.8244 246.493 48.2869 238.978 51.2119C231.463 30.7367 217.936 11.7241 195.391 11.7241H193.888C187.876 2.949 178.858 0.0239746 171.343 0.0239746C117.234 -1.43854 91.6834 64.3745 82.6653 98.0123C70.6413 100.937 58.6172 105.325 45.0902 109.712C33.0661 112.637 33.0661 114.1 31.5631 124.338C30.0601 131.65 0 362.727 0 362.727L238.978 406.602L368.236 378.815C368.236 378.815 323.146 80.4622 323.146 77.5371Z" fill="black"/>
<path d="M318.637 74.6121C317.134 74.6121 285.571 71.6871 285.571 71.6871C285.571 71.6871 263.026 49.7494 260.02 48.2869C258.517 46.8244 258.517 46.8244 257.014 46.8244L238.978 406.602L368.237 378.815C368.237 378.815 323.146 80.4622 323.146 77.5371C323.146 76.0746 320.14 74.6121 318.637 74.6121Z" fill="black"/>
<path d="M195.391 144.813L178.858 191.613C178.858 191.613 165.331 184.301 147.295 184.301C121.743 184.301 120.24 198.926 120.24 203.313C120.24 223.788 177.355 232.563 177.355 282.289C177.355 321.777 151.804 346.639 117.234 346.639C76.6532 346.639 55.6111 321.777 55.6111 321.777L66.1322 286.676C66.1322 286.676 87.1743 304.227 105.21 304.227C117.234 304.227 121.743 295.452 121.743 288.139C121.743 260.351 75.1502 258.889 75.1502 213.551C75.1502 175.525 103.707 138.963 159.319 138.963C184.87 137.5 195.391 144.813 195.391 144.813Z" fill="#FFFFFE"/>
<path d="M520.04 231.101C506.513 223.788 500.501 217.938 500.501 210.626C500.501 200.388 509.519 194.538 524.549 194.538C541.082 194.538 556.112 201.851 556.112 201.851L568.136 166.75C568.136 166.75 557.615 157.975 526.052 157.975C480.962 157.975 450.902 182.838 450.902 217.938C450.902 238.413 465.932 253.039 483.968 263.276C498.998 272.051 505.01 277.901 505.01 286.676C505.01 295.451 497.495 304.227 482.465 304.227C461.423 304.227 440.381 293.989 440.381 293.989L428.357 329.089C428.357 329.089 446.393 340.789 477.956 340.789C523.046 340.789 556.112 318.852 556.112 279.364C556.112 257.426 539.579 241.339 520.04 231.101ZM701.904 156.513C679.359 156.513 661.323 166.75 647.796 182.838L667.335 83.3872H616.232L566.633 336.402H617.735L634.269 250.114C640.281 217.938 658.317 197.463 674.85 197.463C686.874 197.463 691.383 204.776 691.383 216.476C691.383 223.788 691.383 231.101 689.88 238.413L670.341 337.864H721.443L740.982 235.488C742.485 225.251 743.988 212.088 743.988 203.313C743.988 174.063 728.958 156.513 701.904 156.513ZM832.665 301.302C814.629 301.302 808.617 286.676 808.617 269.126C808.617 241.339 823.647 194.538 850.701 194.538C868.737 194.538 874.749 209.163 874.749 223.788C874.749 255.964 859.719 301.302 832.665 301.302ZM858.216 156.513C796.593 156.513 756.012 210.626 756.012 270.589C756.012 308.614 780.06 339.327 826.653 339.327C886.774 339.327 927.355 286.676 927.355 225.251C927.355 190.151 906.313 156.513 858.216 156.513ZM1008.52 302.764C994.99 302.764 987.475 295.451 987.475 295.451L996.493 248.651C1002.51 217.938 1019.04 197.463 1037.07 197.463C1052.1 197.463 1058.12 212.088 1058.12 225.251C1056.61 257.426 1037.07 302.764 1008.52 302.764ZM1058.12 156.513C1023.55 156.513 1004.01 185.763 1004.01 185.763L1007.01 159.438H961.924C960.421 176.988 955.912 204.776 951.403 225.251L915.331 406.602H966.433L979.96 333.477H981.463C981.463 333.477 991.984 339.327 1011.52 339.327C1071.64 339.327 1110.72 279.364 1110.72 219.401C1110.72 187.226 1095.69 156.513 1058.12 156.513ZM1182.87 86.3122C1166.33 86.3122 1154.31 99.4748 1154.31 115.562C1154.31 130.188 1163.33 140.425 1178.36 140.425C1194.89 140.425 1208.42 130.188 1208.42 111.175C1208.42 96.5498 1197.9 86.3122 1182.87 86.3122ZM1112.22 336.402H1163.33L1197.9 160.9H1146.79L1112.22 336.402ZM1327.15 160.9H1291.08L1292.59 152.125C1295.59 134.575 1306.11 119.95 1322.65 119.95C1331.66 119.95 1339.18 122.875 1339.18 122.875L1349.7 83.3872C1349.7 83.3872 1340.68 78.9996 1322.65 78.9996C1304.61 78.9996 1286.57 83.3872 1273.05 95.0873C1255.01 109.712 1247.49 130.188 1242.99 150.663L1241.48 159.438H1217.43L1209.92 197.463H1233.97L1206.91 336.402H1258.02L1285.07 197.463H1319.64L1327.15 160.9ZM1448.9 160.9C1448.9 160.9 1417.33 238.413 1402.3 280.826C1400.8 267.664 1390.28 160.9 1390.28 160.9H1336.17L1366.23 321.777C1366.23 324.702 1366.23 327.627 1364.73 330.552C1358.72 342.252 1348.2 352.489 1337.68 359.802C1328.66 367.115 1316.63 371.502 1309.12 374.427L1322.65 416.84C1333.17 415.377 1354.21 406.602 1372.24 390.515C1394.79 370.04 1417.33 336.402 1438.38 292.526L1500 162.363L1448.9 160.9Z" fill="black"/>
</g>
<defs>
<clipPath id="clip0_46_49">
<rect width="1500" height="416.84" fill="white"/>
</clipPath>
</defs>
</svg>
