<svg width="2500" height="1494" viewBox="0 0 2500 1494" fill="none" xmlns="http://www.w3.org/2000/svg">
<path d="M232.115 1.52588e-05H2266.86C2395.64 1.52588e-05 2499.88 104.238 2499.88 233.015V1009.71C2499.88 1138.49 2395.64 1242.72 2266.86 1242.72H1537.18L1637.33 1487.99L1196.86 1242.72H233.131C104.363 1242.72 0.125176 1138.49 0.125176 1009.71V233.015C-0.900118 105.264 103.328 1.52588e-05 232.115 1.52588e-05Z" fill="black"/>
<path d="M142.468 212.382C156.695 193.068 178.031 182.912 206.485 180.881C258.316 176.81 287.786 201.192 294.895 254.039C326.396 466.421 360.943 646.287 397.522 793.626L620.059 369.887C640.389 331.268 665.797 310.947 696.283 308.916C740.995 305.87 768.424 334.314 779.605 394.27C805.013 529.413 837.529 644.246 876.139 741.795C902.562 483.695 947.275 297.736 1010.28 182.912C1025.51 154.458 1047.87 140.231 1077.34 138.19C1100.72 136.169 1122.05 143.278 1141.36 158.52C1160.66 173.763 1170.83 193.068 1172.86 216.444C1173.87 234.734 1170.83 249.976 1162.7 265.219C1123.07 338.386 1090.54 461.343 1064.13 632.05C1038.73 797.689 1029.58 926.749 1035.67 1019.22C1037.72 1044.61 1033.64 1066.97 1023.49 1086.28C1011.28 1108.64 993.003 1120.83 969.626 1122.86C943.203 1124.89 915.774 1112.71 889.35 1085.27C794.848 988.725 719.65 844.432 664.782 652.38C598.723 782.446 549.949 879.995 518.448 945.028C458.493 1059.86 407.687 1118.8 365.005 1121.85C337.566 1123.88 314.199 1100.5 293.879 1051.74C242.058 918.615 186.165 661.52 126.219 280.462C122.147 254.039 128.24 230.662 142.468 212.382ZM2326.21 371.918C2289.63 307.901 2235.77 269.291 2163.62 254.039C2144.31 249.976 2126.03 247.945 2108.75 247.945C2011.2 247.945 1931.94 298.751 1869.95 400.372C1817.1 486.741 1790.69 582.26 1790.69 686.928C1790.69 765.172 1806.95 832.236 1839.47 888.129C1876.04 952.147 1929.91 990.756 2002.05 1006C2021.35 1010.07 2039.64 1012.1 2056.93 1012.1C2155.49 1012.1 2234.75 961.296 2295.72 859.675C2348.56 772.281 2374.98 676.762 2374.98 572.104C2376 492.844 2358.72 426.786 2326.21 371.918ZM2198.17 653.396C2183.95 720.46 2158.54 770.25 2120.93 803.782C2091.47 830.205 2064.03 841.376 2038.64 836.298C2014.24 831.221 1993.91 809.885 1978.68 770.25C1966.48 738.749 1960.39 707.248 1960.39 677.778C1960.39 652.38 1962.42 626.972 1967.5 603.605C1976.65 561.939 1993.92 521.289 2021.35 482.679C2054.89 432.879 2090.46 412.569 2127.04 419.677C2151.43 424.755 2171.76 446.101 2186.99 485.726C2199.19 517.227 2205.28 548.728 2205.28 578.198C2205.28 604.621 2203.25 630.029 2198.17 653.396ZM1690.09 371.918C1653.51 307.901 1598.63 269.291 1527.5 254.039C1508.2 249.976 1489.91 247.945 1472.63 247.945C1375.08 247.945 1295.82 298.751 1233.83 400.372C1180.99 486.741 1154.57 582.26 1154.57 686.928C1154.57 765.172 1170.83 832.236 1203.34 888.129C1239.92 952.147 1293.78 990.756 1365.93 1006C1385.24 1010.07 1403.52 1012.1 1420.8 1012.1C1519.37 1012.1 1598.63 961.296 1659.6 859.675C1712.45 772.281 1738.86 676.762 1738.86 572.104C1738.86 492.844 1722.6 426.786 1690.09 371.918ZM1561.04 653.396C1546.81 720.46 1521.4 770.25 1483.81 803.782C1454.34 830.205 1426.9 841.376 1401.49 836.298C1377.11 831.221 1356.79 809.885 1341.53 770.25C1329.35 738.749 1323.25 707.248 1323.25 677.778C1323.25 652.38 1325.29 626.972 1330.36 603.605C1339.51 561.939 1356.79 521.289 1384.23 482.679C1417.76 432.879 1453.32 412.569 1489.9 419.677C1514.29 424.755 1534.62 446.101 1549.85 485.726C1562.06 517.227 1568.14 548.728 1568.14 578.198C1569.17 604.621 1566.11 630.029 1561.04 653.396Z" fill="white"/>
</svg>
